<svg width="20" height="20" viewBox="0 0 20 20" fill="none" xmlns="http://www.w3.org/2000/svg">
<path fill-rule="evenodd" clip-rule="evenodd" d="M4.99967 4.5C3.80306 4.5 2.83301 5.47005 2.83301 6.66667V13.3333C2.83301 14.53 3.80306 15.5 4.99967 15.5H14.9997C16.1963 15.5 17.1663 14.53 17.1663 13.3333V6.66667C17.1663 5.47005 16.1963 4.5 14.9997 4.5H4.99967ZM4.11934 5.90106C4.33323 5.65533 4.64831 5.5 4.99967 5.5H14.9997C15.3511 5.5 15.6662 5.65534 15.88 5.90109L9.99971 10.2133L4.11934 5.90106ZM3.83301 6.93116V13.3333C3.83301 13.9777 4.35534 14.5 4.99967 14.5H14.9997C15.644 14.5 16.1663 13.9777 16.1663 13.3333V6.93121L10.2954 11.2366C10.1194 11.3656 9.88002 11.3656 9.70403 11.2366L3.83301 6.93116Z" fill="#3A7CFD"/>
</svg>
