<svg width="20" height="20" viewBox="0 0 20 20" fill="none" xmlns="http://www.w3.org/2000/svg">
<path fill-rule="evenodd" clip-rule="evenodd" d="M5.50016 7.33203C5.50016 4.84675 7.51488 2.83203 10.0002 2.83203C12.4854 2.83203 14.5002 4.84675 14.5002 7.33203C14.5002 8.89158 13.6282 10.0148 12.7358 10.9442C12.5205 11.1685 12.2984 11.3869 12.0837 11.5981L12.0559 11.6255C11.8305 11.8471 11.6139 12.0608 11.4097 12.2759C10.9994 12.7083 10.6644 13.1217 10.4474 13.5556C10.3627 13.725 10.1895 13.832 10.0002 13.832C9.81078 13.832 9.63765 13.725 9.55295 13.5556C9.33596 13.1217 9.00092 12.7083 8.59059 12.2759C8.38647 12.0608 8.16978 11.8471 7.94448 11.6255L7.91662 11.5981C7.70191 11.3869 7.47983 11.1685 7.26449 10.9442C6.3721 10.0148 5.50016 8.89158 5.50016 7.33203ZM10.0002 7.16537C9.90812 7.16537 9.8335 7.23998 9.8335 7.33203C9.8335 7.42408 9.90812 7.4987 10.0002 7.4987C10.0922 7.4987 10.1668 7.42408 10.1668 7.33203C10.1668 7.23998 10.0922 7.16537 10.0002 7.16537ZM8.8335 7.33203C8.8335 6.6877 9.35583 6.16537 10.0002 6.16537C10.6445 6.16537 11.1668 6.6877 11.1668 7.33203C11.1668 7.97636 10.6445 8.4987 10.0002 8.4987C9.35583 8.4987 8.8335 7.97636 8.8335 7.33203ZM5.79096 11.3211C5.90242 11.5738 5.78795 11.8689 5.5353 11.9804C4.95679 12.2356 4.51895 12.5282 4.23255 12.8286C3.9486 13.1265 3.8335 13.4085 3.8335 13.6654C3.8335 14.1745 4.31617 14.8019 5.4913 15.3307C6.6195 15.8384 8.21317 16.1654 10.0002 16.1654C11.7872 16.1654 13.3808 15.8384 14.509 15.3307C15.6842 14.8019 16.1668 14.1745 16.1668 13.6654C16.1668 13.4085 16.0517 13.1265 15.7678 12.8286C15.4814 12.5282 15.0435 12.2356 14.465 11.9804C14.2124 11.8689 14.0979 11.5738 14.2094 11.3211C14.3208 11.0685 14.616 10.954 14.8686 11.0655C15.5244 11.3547 16.0865 11.7137 16.4916 12.1386C16.8991 12.5661 17.1668 13.083 17.1668 13.6654C17.1668 14.8131 16.1571 15.6857 14.9194 16.2426C13.6347 16.8207 11.8951 17.1654 10.0002 17.1654C8.10526 17.1654 6.3656 16.8207 5.08094 16.2426C3.84321 15.6857 2.8335 14.8131 2.8335 13.6654C2.8335 13.083 3.10127 12.5661 3.50876 12.1386C3.9138 11.7137 4.47596 11.3547 5.13169 11.0655C5.38434 10.954 5.67951 11.0685 5.79096 11.3211Z" fill="#C8CBE7"/>
</svg>
