<svg width="16" height="16" viewBox="0 0 16 16" fill="none" xmlns="http://www.w3.org/2000/svg">
<path d="M4.75312 11.2135C6.9874 13.4441 9.70872 15.1654 11.9275 15.1654C12.9248 15.1654 13.7984 14.818 14.5019 14.0462C14.9116 13.5908 15.1668 13.0582 15.1668 12.5333C15.1668 12.1474 15.0199 11.7769 14.6488 11.5145L12.2831 9.83185C11.9198 9.58486 11.6183 9.46136 11.34 9.46136C10.9843 9.46136 10.6751 9.66205 10.3195 10.0094L9.77054 10.5497C9.6855 10.6346 9.57728 10.6732 9.47677 10.6732C9.35307 10.6732 9.24485 10.6269 9.15981 10.5883C8.68821 10.3335 7.86872 9.63119 7.10335 8.87477C6.3457 8.11834 5.64218 7.30017 5.39479 6.82163C5.34841 6.73673 5.30975 6.62864 5.30975 6.51288C5.30975 6.41254 5.34069 6.31219 5.42573 6.22729L5.96689 5.66385C6.31479 5.30877 6.51578 5.00003 6.51578 4.64499C6.51578 4.36714 6.39211 4.0661 6.13697 3.70335L4.47479 1.36462C4.2042 0.994125 3.8254 0.832031 3.40793 0.832031C2.89767 0.832031 2.36423 1.06358 1.91582 1.50356C1.16593 2.22139 0.833496 3.10902 0.833496 4.08925C0.833496 6.30449 2.52659 8.99053 4.75312 11.2135Z" fill="#C8CBE7"/>
</svg>
