<svg width="16" height="14" viewBox="0 0 16 14" fill="none" xmlns="http://www.w3.org/2000/svg">
<path fill-rule="evenodd" clip-rule="evenodd" d="M4.36528 0.195313L11.6347 0.195314C12.1981 0.195308 12.6546 0.195303 13.0247 0.225543C13.4064 0.256733 13.7449 0.322845 14.0591 0.482936C14.5557 0.735935 14.9594 1.13963 15.2124 1.63617C15.3725 1.95037 15.4386 2.28888 15.4698 2.67063C15.5 3.04073 15.5 3.49721 15.5 4.06054V9.9412C15.5 10.5045 15.5 10.961 15.4698 11.3311C15.4386 11.7129 15.3725 12.0514 15.2124 12.3656C14.9594 12.8621 14.5557 13.2658 14.0591 13.5188C13.7449 13.6789 13.4064 13.745 13.0247 13.7762C12.6546 13.8064 12.1981 13.8064 11.6348 13.8064H4.36529C3.80194 13.8064 3.34544 13.8064 2.97532 13.7762C2.59356 13.745 2.25505 13.6789 1.94086 13.5188C1.44432 13.2658 1.04062 12.8621 0.787622 12.3656C0.627531 12.0514 0.56142 11.7129 0.530229 11.3311C0.49999 10.961 0.499994 10.5045 0.5 9.94114L0.5 4.91794C0.5 4.91781 0.5 4.91808 0.5 4.91794C0.5 4.91781 0.5 4.91726 0.5 4.91712L0.5 4.06059C0.499994 3.49724 0.49999 3.04075 0.530229 2.67063C0.56142 2.28888 0.627531 1.95037 0.787622 1.63617C1.04062 1.13963 1.44432 0.735933 1.94086 0.482934C2.25505 0.322843 2.59356 0.256732 2.97532 0.225541C3.34543 0.195302 3.80193 0.195307 4.36528 0.195313ZM1.61111 5.47309L1.61111 9.91753C1.61111 10.5101 1.61154 10.9211 1.63765 11.2406C1.66323 11.5537 1.71065 11.7297 1.77763 11.8611C1.9241 12.1486 2.15782 12.3823 2.44529 12.5288C2.57675 12.5958 2.75276 12.6432 3.0658 12.6688C3.38533 12.6949 3.79633 12.6953 4.38889 12.6953H11.6111C12.2037 12.6953 12.6147 12.6949 12.9342 12.6688C13.2472 12.6432 13.4233 12.5958 13.5547 12.5288C13.8422 12.3823 14.0759 12.1486 14.2224 11.8611C14.2894 11.7297 14.3368 11.5537 14.3623 11.2406C14.3885 10.9211 14.3889 10.5101 14.3889 9.91753V5.47309H1.61111ZM14.3889 4.36198H1.61111V4.0842C1.61111 3.49165 1.61154 3.08064 1.63765 2.76111C1.66323 2.44807 1.71065 2.27206 1.77763 2.1406C1.9241 1.85313 2.15782 1.61941 2.44529 1.47294C2.57675 1.40596 2.75276 1.35854 3.0658 1.33296C3.38533 1.30686 3.79633 1.30642 4.38889 1.30642L11.6111 1.30642C12.2037 1.30642 12.6147 1.30686 12.9342 1.33296C13.2472 1.35854 13.4233 1.40596 13.5547 1.47294C13.8422 1.61942 14.0759 1.85314 14.2224 2.14061C14.2894 2.27206 14.3368 2.44807 14.3623 2.76111C14.3885 3.08064 14.3889 3.49165 14.3889 4.0842V4.36198Z" fill="#3A7CFD"/>
</svg>
